# xmcd
#
# Track frame offsets:
#	150
#	9880
#	21093
#	32875
#	44934
#	54452
#	64003
#	75744
#	87302
#	99252
#	110426
#	121409
#	133611
#	144155
#	157384
#	167702
#	177556
#	189604
#	199273
#	210861
#	223079
#	233476
#	242962
#	253719
#
# Disc length: 3524 seconds
#
# Revision: 1
# Processed by: cddbd v1.5.2PL0 Copyright (c) Steve Scherf et al.
# Submitted via: audiograbber 1.83.01
#
DISCID=550dc218
DTITLE=Various Artist - Hillbilly Bop, Boogie and The Honky Tonk Blues, Volume 3
DYEAR=1900
DGENRE=
TTITLE0=Fred Crawford - You Gotta Wait
TTITLE1=Les Chambers - Kiss Like That
TTITLE2=Smilin' Jerry Jericho - Lovin' Up A Storm
TTITLE3=George Jones - Play It Cool, Man, Play It Cool
TTITLE4=R.D. Hendon - You Traveled Too Far
TTITLE5=Al Petty w/Gene Tabor - Country Saturday Night
TTITLE6=Dick Stubbs - Wired For Sound
TTITLE7=Pat Patterson - First You Buy The Beer
TTITLE8=Jack Turner - I Was Only Fooling Me
TTITLE9=Fred Crawford - Never Gonna Get Married
TTITLE10=Peck Touchton - Let Me Catch My Breath
TTITLE11=Arlie Duff - Back To The Country
TTITLE12=Fred Crawford - Each Passing Day
TTITLE13=Earney Vandagriff - Alabama Blues
TTITLE14=Les Chambers - Lonesome
TTITLE15=Eddie Eddings - Smoochin'
TTITLE16=Al Petty - Twin Steel Ride
TTITLE17=Sonny Burns - Another Woman Looking For A Man
TTITLE18=Joe Price - Pay Attention Please
TTITLE19=Hoot and Curley - Hurry, Hurry
TTITLE20=Arlie Duff - Let Me Be Your Salty Dog
TTITLE21=Earney Vandagriff - Where You Been
TTITLE22=George Jones - No Money In This Deal
TTITLE23=Country Gentlemen - Country Style Boogie
EXTD=
EXTT0=
EXTT1=
EXTT2=
EXTT3=
EXTT4=
EXTT5=
EXTT6=
EXTT7=
EXTT8=
EXTT9=
EXTT10=
EXTT11=
EXTT12=
EXTT13=
EXTT14=
EXTT15=
EXTT16=
EXTT17=
EXTT18=
EXTT19=
EXTT20=
EXTT21=
EXTT22=
EXTT23=
PLAYORDER=
